<svg width="32" height="32" viewBox="0 0 55 55" fill="none" xmlns="http://www.w3.org/2000/svg">
<rect width="55" height="55" rx="8" fill="white"/>
<path d="M37.7866 30.3201L36.4533 28.1067C36.1733 27.6134 35.92 26.6801 35.92 26.1334V22.7601C35.92 19.6267 34.08 16.9201 31.4266 15.6534C30.7333 14.4267 29.4533 13.6667 27.9866 13.6667C26.5333 13.6667 25.2266 14.4534 24.5333 15.6934C21.9333 16.9867 20.1333 19.6667 20.1333 22.7601V26.1334C20.1333 26.6801 19.88 27.6134 19.6 28.0934L18.2533 30.3201C17.72 31.2134 17.6 32.2001 17.9333 33.1067C18.2533 34.0001 19.0133 34.6934 20 35.0267C22.5866 35.9067 25.3066 36.3334 28.0266 36.3334C30.7466 36.3334 33.4666 35.9067 36.0533 35.0401C36.9866 34.7334 37.7066 34.0267 38.0533 33.1067C38.4 32.1867 38.3066 31.1734 37.7866 30.3201Z" fill="#0F191A"/>
<path d="M31.7734 37.6801C31.2134 39.2267 29.7334 40.3334 28.0001 40.3334C26.9468 40.3334 25.9068 39.9067 25.1734 39.1467C24.7468 38.7467 24.4268 38.2134 24.2401 37.6667C24.4134 37.6934 24.5868 37.7067 24.7734 37.7334C25.0801 37.7734 25.4001 37.8134 25.7201 37.8401C26.4801 37.9067 27.2534 37.9467 28.0268 37.9467C28.7868 37.9467 29.5468 37.9067 30.2934 37.8401C30.5734 37.8134 30.8534 37.8001 31.1201 37.7601C31.3334 37.7334 31.5468 37.7067 31.7734 37.6801Z" fill="#0F191A"/>
</svg>
