<svg width="32" height="32" viewBox="0 0 55 55" fill="none" xmlns="http://www.w3.org/2000/svg">
<rect width="55" height="55" rx="8" fill="white"/>
<path d="M38.8001 23.2933C36.3867 23.2933 35.4001 21.5867 36.6001 19.4933C37.2934 18.28 36.8801 16.7333 35.6667 16.04L33.3601 14.72C32.3067 14.0933 30.9467 14.4667 30.3201 15.52L30.1734 15.7733C28.9734 17.8667 27.0001 17.8667 25.7867 15.7733L25.6401 15.52C25.0401 14.4667 23.6801 14.0933 22.6267 14.72L20.3201 16.04C19.1067 16.7333 18.6934 18.2933 19.3867 19.5067C20.6001 21.5867 19.6134 23.2933 17.2001 23.2933C15.8134 23.2933 14.6667 24.4267 14.6667 25.8267V28.1733C14.6667 29.56 15.8001 30.7067 17.2001 30.7067C19.6134 30.7067 20.6001 32.4133 19.3867 34.5067C18.6934 35.72 19.1067 37.2667 20.3201 37.96L22.6267 39.28C23.6801 39.9067 25.0401 39.5333 25.6667 38.48L25.8134 38.2267C27.0134 36.1333 28.9867 36.1333 30.2001 38.2267L30.3467 38.48C30.9734 39.5333 32.3334 39.9067 33.3867 39.28L35.6934 37.96C36.9067 37.2667 37.3201 35.7067 36.6267 34.5067C35.4134 32.4133 36.4001 30.7067 38.8134 30.7067C40.2001 30.7067 41.3467 29.5733 41.3467 28.1733V25.8267C41.3334 24.44 40.2001 23.2933 38.8001 23.2933ZM28.0001 31.3333C25.6134 31.3333 23.6667 29.3867 23.6667 27C23.6667 24.6133 25.6134 22.6667 28.0001 22.6667C30.3867 22.6667 32.3334 24.6133 32.3334 27C32.3334 29.3867 30.3867 31.3333 28.0001 31.3333Z" fill="#0F191A"/>
</svg>
