<svg width="28" height="28" viewBox="0 0 40 40" fill="none" xmlns="http://www.w3.org/2000/svg">
<circle cx="20" cy="20" r="20" fill="#FFEE93"/>
<path d="M27.475 10.8334H25.025C24.3 10.8334 23.7666 11.1334 23.525 11.6667C23.3916 11.9084 23.3333 12.1917 23.3333 12.525V14.975C23.3333 16.0334 23.9666 16.6667 25.025 16.6667H27.475C27.8083 16.6667 28.0916 16.6084 28.3333 16.475C28.8666 16.2334 29.1666 15.7 29.1666 14.975V12.525C29.1666 11.4667 28.5333 10.8334 27.475 10.8334ZM28.2583 14.1084C28.175 14.1917 28.05 14.25 27.9166 14.2584H26.7416V14.6834L26.75 15.4167C26.7416 15.5584 26.6916 15.675 26.5916 15.775C26.5083 15.8584 26.3833 15.9167 26.25 15.9167C25.975 15.9167 25.75 15.6917 25.75 15.4167V14.25L24.5833 14.2584C24.3083 14.2584 24.0833 14.025 24.0833 13.75C24.0833 13.475 24.3083 13.25 24.5833 13.25L25.3166 13.2584H25.75V12.0917C25.75 11.8167 25.975 11.5834 26.25 11.5834C26.525 11.5834 26.75 11.8167 26.75 12.0917L26.7416 12.6834V13.25H27.9166C28.1916 13.25 28.4166 13.475 28.4166 13.75C28.4083 13.8917 28.35 14.0084 28.2583 14.1084Z" fill="#0F191A"/>
<path d="M17.5 18.65C18.5954 18.65 19.4833 17.762 19.4833 16.6667C19.4833 15.5713 18.5954 14.6833 17.5 14.6833C16.4046 14.6833 15.5167 15.5713 15.5167 16.6667C15.5167 17.762 16.4046 18.65 17.5 18.65Z" fill="#0F191A"/>
<path d="M27.475 16.6666H27.0834V20.5083L26.975 20.4166C26.325 19.8583 25.275 19.8583 24.625 20.4166L21.1584 23.3916C20.5084 23.95 19.4584 23.95 18.8084 23.3916L18.525 23.1583C17.9334 22.6416 16.9917 22.5916 16.325 23.0416L13.2084 25.1333C13.025 24.6666 12.9167 24.125 12.9167 23.4916V16.5083C12.9167 14.1583 14.1584 12.9166 16.5084 12.9166H23.3334V12.525C23.3334 12.1916 23.3917 11.9083 23.525 11.6666H16.5084C13.475 11.6666 11.6667 13.475 11.6667 16.5083V23.4916C11.6667 24.4 11.825 25.1916 12.1334 25.8583C12.85 27.4416 14.3834 28.3333 16.5084 28.3333H23.4917C26.525 28.3333 28.3334 26.525 28.3334 23.4916V16.475C28.0917 16.6083 27.8084 16.6666 27.475 16.6666Z" fill="#0F191A"/>
</svg>
