<svg width="28" height="28" viewBox="0 0 40 40" fill="none" xmlns="http://www.w3.org/2000/svg">
<circle cx="20" cy="20" r="20" fill="#FFEE93"/>
<path d="M20 11.6666C15.4 11.6666 11.6667 15.4 11.6667 20C11.6667 24.6 15.4 28.3333 20 28.3333C24.6 28.3333 28.3334 24.6 28.3334 20C28.3334 15.4 24.6 11.6666 20 11.6666ZM22.2167 21.4416L21.15 22.0583L20.0834 22.675C18.7084 23.4666 17.5834 22.8166 17.5834 21.2333V20V18.7666C17.5834 17.175 18.7084 16.5333 20.0834 17.325L21.15 17.9416L22.2167 18.5583C23.5917 19.35 23.5917 20.65 22.2167 21.4416Z" fill="#0F191A"/>
</svg>
