<svg width="28" height="28" viewBox="0 0 40 40" fill="none" xmlns="http://www.w3.org/2000/svg">
<circle cx="20" cy="20" r="20" fill="#FFEE93"/>
<path d="M27.5 28.3334H12.5C12.1583 28.3334 11.875 28.05 11.875 27.7084C11.875 27.3667 12.1583 27.0834 12.5 27.0834H27.5C27.8417 27.0834 28.125 27.3667 28.125 27.7084C28.125 28.05 27.8417 28.3334 27.5 28.3334Z" fill="#0F191A"/>
<path d="M25.85 12.9C24.2333 11.2834 22.65 11.2417 20.9916 12.9L19.9833 13.9084C19.9 13.9917 19.8666 14.1251 19.9 14.2417C20.5333 16.4501 22.3 18.2167 24.5083 18.85C24.5416 18.8584 24.575 18.8667 24.6083 18.8667C24.7 18.8667 24.7833 18.8334 24.85 18.7667L25.85 17.7584C26.675 16.9417 27.075 16.1501 27.075 15.35C27.0833 14.525 26.6833 13.725 25.85 12.9Z" fill="#0F191A"/>
<path d="M23.0083 19.6083C22.7666 19.4916 22.5333 19.375 22.3083 19.2416C22.125 19.1333 21.95 19.0166 21.775 18.8916C21.6333 18.8 21.4666 18.6666 21.3083 18.5333C21.2916 18.525 21.2333 18.475 21.1666 18.4083C20.8916 18.175 20.5833 17.875 20.3083 17.5416C20.2833 17.525 20.2416 17.4666 20.1833 17.3916C20.1 17.2916 19.9583 17.125 19.8333 16.9333C19.7333 16.8083 19.6166 16.625 19.5083 16.4416C19.375 16.2166 19.2583 15.9916 19.1416 15.7583C19.124 15.7205 19.1069 15.6828 19.0903 15.6454C18.9674 15.3676 18.6052 15.2864 18.3904 15.5012L13.6166 20.275C13.5083 20.3833 13.4083 20.5916 13.3833 20.7333L12.9333 23.925C12.85 24.4916 13.0083 25.025 13.3583 25.3833C13.6583 25.675 14.075 25.8333 14.525 25.8333C14.625 25.8333 14.725 25.825 14.825 25.8083L18.025 25.3583C18.175 25.3333 18.3833 25.2333 18.4833 25.125L23.2511 20.3572C23.4674 20.1409 23.3858 19.7697 23.1044 19.6496C23.0728 19.6361 23.0407 19.6223 23.0083 19.6083Z" fill="#0F191A"/>
</svg>
